<?xml version="1.0" standalone="no"?>
<!DOCTYPE svg PUBLIC "-//W3C//DTD SVG 20010904//EN"
 "http://www.w3.org/TR/2001/REC-SVG-20010904/DTD/svg10.dtd">
<svg version="1.0" xmlns="http://www.w3.org/2000/svg"
 width="80.000000pt" height="80.000000pt" viewBox="0 0 80.000000 80.000000"
 preserveAspectRatio="xMidYMid meet">
<metadata>
Created by potrace 1.14, written by Peter Selinger 2001-2017
</metadata>
<g transform="translate(0.000000,80.000000) scale(0.100000,-0.100000)"
fill="#000000" stroke="none">
<path d="M401 758 c2 -30 2 -31 6 -5 2 15 9 27 14 27 6 0 8 -9 4 -19 -3 -11
-2 -22 3 -24 4 -3 8 6 7 21 0 17 -6 28 -17 30 -15 3 -18 -3 -17 -30z"/>
<path d="M320 765 c0 -8 8 -15 18 -14 10 0 12 3 4 6 -6 2 -10 9 -6 14 3 5 0 9
-5 9 -6 0 -11 -7 -11 -15z"/>
<path d="M480 763 c1 -13 30 -48 30 -36 0 7 -5 15 -10 18 -6 4 -8 11 -5 16 4
5 1 9 -4 9 -6 0 -11 -3 -11 -7z"/>
<path d="M244 733 c22 -27 36 -29 36 -7 0 10 -6 14 -14 11 -7 -3 -20 0 -27 6
-7 7 -5 2 5 -10z"/>
<path d="M551 723 c-10 -26 -10 -27 4 -9 8 11 15 23 15 28 0 15 -7 8 -19 -19z"/>
<path d="M330 728 c0 -4 4 -8 9 -8 6 0 12 4 15 8 3 5 -1 9 -9 9 -8 0 -15 -4
-15 -9z"/>
<path d="M190 715 c0 -5 5 -17 10 -25 5 -8 10 -10 10 -5 0 6 -5 17 -10 25 -5
8 -10 11 -10 5z"/>
<path d="M612 714 c4 -4 3 -15 -3 -25 -13 -24 -8 -24 13 0 15 18 15 20 0 26
-9 3 -13 3 -10 -1z"/>
<path d="M145 671 c3 -5 -4 -11 -16 -13 l-21 -3 21 -19 c17 -15 20 -16 16 -4
-4 9 -2 19 4 23 6 3 11 1 11 -4 0 -6 5 -11 10 -11 6 0 5 8 -2 20 -7 11 -16 20
-21 20 -4 0 -6 -4 -2 -9z"/>
<path d="M656 645 c-11 -8 -14 -15 -8 -15 7 0 12 -8 12 -17 0 -15 2 -16 10 -3
6 9 5 17 -3 22 -11 7 -3 12 16 9 4 0 7 4 7 9 0 14 -11 12 -34 -5z"/>
<path d="M230 613 c-18 -23 -21 -38 -18 -88 6 -90 53 -179 128 -240 19 -16 18
-12 -8 22 -113 145 -94 331 27 270 29 -14 29 -14 18 4 -13 21 -83 59 -109 59
-9 0 -26 -12 -38 -27z"/>
<path d="M88 594 c27 -19 20 -39 -9 -24 -10 6 -19 8 -19 6 0 -3 9 -10 19 -15
28 -15 48 11 26 33 -9 9 -22 16 -28 16 -6 0 -1 -7 11 -16z"/>
<path d="M713 569 c-4 -16 -8 -17 -14 -7 -6 9 -9 9 -9 1 0 -22 21 -25 27 -3 3
13 11 19 20 16 8 -3 11 -1 8 4 -10 17 -27 11 -32 -11z"/>
<path d="M373 519 c-81 -15 -71 -24 25 -24 84 0 103 -3 139 -24 70 -40 78 -95
21 -135 -28 -20 -11 -20 35 -1 40 17 67 49 67 81 0 69 -158 126 -287 103z"/>
<path d="M50 510 c0 -5 5 -10 11 -10 5 0 7 5 4 10 -3 6 -8 10 -11 10 -2 0 -4
-4 -4 -10z"/>
<path d="M735 510 c-3 -5 -1 -10 4 -10 6 0 11 5 11 10 0 6 -2 10 -4 10 -3 0
-8 -4 -11 -10z"/>
<path d="M358 472 c-27 -3 -28 -6 -28 -60 l0 -57 60 -3 60 -3 0 59 0 60 -32 3
c-18 2 -45 3 -60 1z m12 -27 c-7 -9 -15 -13 -19 -10 -3 3 1 10 9 15 21 14 24
12 10 -5z m40 -22 c0 -32 -5 -28 -14 10 -4 19 -3 26 4 22 5 -3 10 -18 10 -32z
m1 -39 c19 3 28 2 24 -4 -3 -6 -19 -10 -36 -10 -26 0 -29 3 -28 33 2 31 2 31
6 3 4 -25 7 -28 34 -22z m16 24 c-3 -8 -6 -5 -6 6 -1 11 2 17 5 13 3 -3 4 -12
1 -19z m-70 -3 c0 -8 -4 -12 -9 -9 -5 3 -6 10 -3 15 9 13 12 11 12 -6z"/>
<path d="M30 450 c0 -14 29 -32 42 -27 8 3 5 6 -7 7 -20 1 -20 1 0 9 17 7 17
8 -8 13 -15 3 -27 2 -27 -2z"/>
<path d="M758 447 c-7 -8 -20 -12 -28 -9 -10 3 -12 1 -5 -6 6 -5 21 -13 35
-17 18 -4 21 -4 11 4 -12 8 -12 12 -2 25 16 19 8 21 -11 3z"/>
<path d="M483 363 c-27 -58 -84 -119 -130 -138 -57 -24 -101 6 -104 72 -1 23
-3 21 -11 -14 -22 -89 12 -140 84 -126 53 10 151 116 176 192 25 73 16 80 -15
14z"/>
<path d="M27 373 c-4 -3 -7 -11 -7 -17 0 -6 5 -4 10 4 7 11 12 12 18 4 5 -9
11 -8 20 2 11 12 9 14 -11 14 -13 0 -27 -3 -30 -7z"/>
<path d="M728 373 c10 -4 10 -8 0 -21 -11 -13 -10 -14 8 -4 12 6 23 10 25 9 2
-1 -2 4 -10 11 -8 6 -20 12 -25 11 -6 0 -5 -3 2 -6z"/>
<path d="M60 300 c0 -5 4 -10 9 -10 6 0 13 5 16 10 3 6 -1 10 -9 10 -9 0 -16
-4 -16 -10z"/>
<path d="M715 300 c-3 -4 4 -15 15 -25 19 -18 20 -17 20 7 0 23 -24 35 -35 18z"/>
<path d="M43 285 c0 -8 7 -15 15 -15 12 0 12 3 2 15 -7 8 -13 15 -15 15 -1 0
-2 -7 -2 -15z"/>
<path d="M70 263 c-14 -7 -18 -13 -10 -13 17 0 47 17 40 23 -3 2 -16 -2 -30
-10z"/>
<path d="M690 238 c0 -2 9 -11 20 -21 11 -9 20 -13 20 -7 0 5 -9 14 -20 20
-11 6 -20 9 -20 8z"/>
<path d="M98 216 c-23 -17 -23 -27 -1 -19 11 4 14 3 9 -5 -11 -18 10 -14 25 5
12 15 12 16 -3 10 -20 -7 -25 9 -5 16 6 3 8 6 2 6 -5 0 -18 -6 -27 -13z"/>
<path d="M144 145 c-13 -11 -14 -14 -4 -13 9 2 14 -3 12 -12 -1 -10 2 -9 13 4
27 36 15 48 -21 21z"/>
<path d="M633 148 c3 -10 2 -20 -3 -23 -4 -3 -10 1 -13 7 -2 7 -8 10 -13 5 -4
-4 0 -15 9 -24 10 -10 17 -12 17 -6 0 6 6 13 14 15 12 3 12 6 -1 23 -12 16
-14 16 -10 3z"/>
<path d="M213 111 c-7 -12 -13 -26 -12 -33 0 -7 4 -4 9 7 9 19 9 19 16 -3 l7
-23 14 21 c8 12 12 24 9 27 -3 4 -6 1 -6 -5 0 -20 -18 -13 -22 8 l-3 21 -12
-20z"/>
<path d="M543 90 c-1 -11 2 -22 8 -25 5 -4 9 -1 9 5 0 6 5 8 10 5 6 -3 10 -1
10 5 0 7 -7 10 -14 7 -10 -4 -13 -1 -9 9 3 7 1 14 -4 14 -5 0 -9 -9 -10 -20z"/>
<path d="M284 69 c-8 -14 21 -43 35 -35 14 9 14 26 0 26 -5 0 -7 -5 -3 -11 4
-7 1 -10 -7 -7 -8 3 -13 13 -13 22 2 19 -2 21 -12 5z"/>
<path d="M372 60 c-1 -14 2 -31 7 -39 7 -10 12 -8 25 10 18 27 20 39 6 39 -5
0 -9 -3 -9 -7 3 -18 -2 -33 -10 -33 -5 0 -12 12 -14 28 -4 26 -4 26 -5 2z"/>
<path d="M450 70 c0 -5 4 -10 10 -10 5 0 7 -8 4 -17 -5 -15 -4 -16 5 -3 10 13
12 13 21 0 8 -12 10 -11 10 7 0 12 -5 25 -12 29 -7 4 -8 3 -4 -4 4 -7 2 -12
-3 -12 -6 0 -11 5 -11 10 0 6 -4 10 -10 10 -5 0 -10 -4 -10 -10z"/>
</g>
</svg>
